<svg xmlns="http://www.w3.org/2000/svg" width="50" height="50" viewBox="0 0 56 56"><g fill="none"><g fill="#6190E8"><g transform="translate(-606 -124)translate(606 124)translate(29.836274 29.694853)rotate(-45)"><path d="M28.5-13.5L10.8-31.1C5.1-36.9-4.1-36.9-9.7-31.2L-28.7-12.2C-34.4-6.5-34.4 2.8-28.7 8.6L-16.4 20.8C-15.1 22.1-12.9 22-11.4 20.6L-10.2 19.3C-8.7 18-8.6 15.7-9.9 14.4L-19.1 5.2C-22.9 1.4-22.9-4.9-19.1-8.8L-6.3-21.6C-2.5-25.4 3.7-25.4 7.5-21.5L18.9-10.1C22.7-6.3 22.7 0 18.9 3.8L14.9 7.8 8.3 1.2C6.5-0.6 3.6-0.6 1.9 1.2L0.9 2.1C-0.8 3.9-0.8 6.8 1 8.6L10.9 18.5C12.5 20.2 15.2 20.3 17 18.8 16.9 18.9 28.5 7.2 28.5 7.2 34.2 1.5 34.2-7.7 28.5-13.5"/><path d="M3.4 27.7L1.3 25.6C0 24.3-2.2 24.5-3.7 25.8L-4.9 27.1C-6.4 28.5-6.5 30.8-5.2 32L-3.1 34.1C-1.8 35.4 0.4 35.3 1.9 33.9L3.1 32.6C4.6 31.2 4.7 29 3.4 27.7"/></g></g></g></svg>
