<?xml version="1.0" encoding="UTF-8" standalone="no"?>
<!DOCTYPE svg PUBLIC "-//W3C//DTD SVG 1.1//EN"
 "http://www.w3.org/Graphics/SVG/1.1/DTD/svg11.dtd">
<!-- Generated by graphviz version 2.38.0 (20140413.2041)
 -->
<!-- Title: %183 Pages: 1 -->
<svg width="228pt" height="213pt"
 viewBox="0.00 0.00 227.72 212.80" xmlns="http://www.w3.org/2000/svg" xmlns:xlink="http://www.w3.org/1999/xlink">
<g id="graph0" class="graph" transform="scale(1 1) rotate(0) translate(4 208.8)">
<title>%183</title>
<polygon fill="white" stroke="none" points="-4,4 -4,-208.8 223.721,-208.8 223.721,4 -4,4"/>
<text text-anchor="middle" x="109.86" y="-188.2" font-family="Times,serif" font-size="14.00">JavaScript数据结构</text>
<!-- Properties -->
<g id="node1" class="node"><title>Properties</title>
<ellipse fill="none" stroke="black" cx="105.573" cy="-90" rx="50.3761" ry="18"/>
<text text-anchor="middle" x="105.573" y="-85.8" font-family="Times,serif" font-size="14.00">Properties</text>
</g>
<!-- Undefined -->
<g id="node2" class="node"><title>Undefined</title>
<ellipse fill="none" stroke="black" cx="167.927" cy="-126" rx="51.5881" ry="18"/>
<text text-anchor="middle" x="167.927" y="-121.8" font-family="Times,serif" font-size="14.00">Undefined</text>
</g>
<!-- Properties&#45;&gt;Undefined -->
<g id="edge1" class="edge"><title>Properties&#45;&gt;Undefined</title>
<path fill="none" stroke="black" d="M132.379,-105.476C132.469,-105.529 132.56,-105.581 132.651,-105.633"/>
<polygon fill="black" stroke="black" points="130.734,-108.568 141.144,-110.537 134.234,-102.506 130.734,-108.568"/>
</g>
<!-- Null -->
<g id="node3" class="node"><title>Null</title>
<ellipse fill="none" stroke="black" cx="105.573" cy="-162" rx="28.4088" ry="18"/>
<text text-anchor="middle" x="105.573" y="-157.8" font-family="Times,serif" font-size="14.00">Null</text>
</g>
<!-- Properties&#45;&gt;Null -->
<g id="edge2" class="edge"><title>Properties&#45;&gt;Null</title>
<path fill="none" stroke="black" d="M105.573,-108.169C105.573,-115.869 105.573,-125.026 105.573,-133.583"/>
<polygon fill="black" stroke="black" points="102.073,-133.587 105.573,-143.587 109.073,-133.587 102.073,-133.587"/>
</g>
<!-- Boolean -->
<g id="node4" class="node"><title>Boolean</title>
<ellipse fill="none" stroke="black" cx="43.2192" cy="-126" rx="43.4396" ry="18"/>
<text text-anchor="middle" x="43.2192" y="-121.8" font-family="Times,serif" font-size="14.00">Boolean</text>
</g>
<!-- Properties&#45;&gt;Boolean -->
<g id="edge3" class="edge"><title>Properties&#45;&gt;Boolean</title>
<path fill="none" stroke="black" d="M78.7676,-105.476C78.355,-105.714 77.9413,-105.953 77.5269,-106.192"/>
<polygon fill="black" stroke="black" points="75.7274,-103.19 68.8171,-111.221 79.2274,-109.252 75.7274,-103.19"/>
</g>
<!-- Number -->
<g id="node5" class="node"><title>Number</title>
<ellipse fill="none" stroke="black" cx="43.2192" cy="-54" rx="42.8577" ry="18"/>
<text text-anchor="middle" x="43.2192" y="-49.8" font-family="Times,serif" font-size="14.00">Number</text>
</g>
<!-- Properties&#45;&gt;Number -->
<g id="edge4" class="edge"><title>Properties&#45;&gt;Number</title>
<path fill="none" stroke="black" d="M78.7676,-74.5238C78.2312,-74.2142 77.693,-73.9035 77.1538,-73.5921"/>
<polygon fill="black" stroke="black" points="78.8339,-70.5207 68.4237,-68.5518 75.3339,-76.5829 78.8339,-70.5207"/>
</g>
<!-- String -->
<g id="node6" class="node"><title>String</title>
<ellipse fill="none" stroke="black" cx="105.573" cy="-18" rx="34.7883" ry="18"/>
<text text-anchor="middle" x="105.573" y="-13.8" font-family="Times,serif" font-size="14.00">String</text>
</g>
<!-- Properties&#45;&gt;String -->
<g id="edge5" class="edge"><title>Properties&#45;&gt;String</title>
<path fill="none" stroke="black" d="M105.573,-71.8314C105.573,-64.131 105.573,-54.9743 105.573,-46.4166"/>
<polygon fill="black" stroke="black" points="109.073,-46.4133 105.573,-36.4133 102.073,-46.4132 109.073,-46.4133"/>
</g>
<!-- Symbol -->
<g id="node7" class="node"><title>Symbol</title>
<ellipse fill="none" stroke="black" cx="167.927" cy="-54" rx="41.1722" ry="18"/>
<text text-anchor="middle" x="167.927" y="-49.8" font-family="Times,serif" font-size="14.00">Symbol</text>
</g>
<!-- Properties&#45;&gt;Symbol -->
<g id="edge6" class="edge"><title>Properties&#45;&gt;Symbol</title>
<path fill="none" stroke="black" d="M132.379,-74.5238C132.915,-74.2142 133.453,-73.9035 133.992,-73.5921"/>
<polygon fill="black" stroke="black" points="135.812,-76.5829 142.722,-68.5518 132.312,-70.5207 135.812,-76.5829"/>
</g>
</g>
</svg>
