<?xml version="1.0" encoding="UTF-8" standalone="no"?>
<!DOCTYPE svg PUBLIC "-//W3C//DTD SVG 1.1//EN"
 "http://www.w3.org/Graphics/SVG/1.1/DTD/svg11.dtd">
<!-- Generated by graphviz version 2.38.0 (20140413.2041)
 -->
<!-- Title: %65 Pages: 1 -->
<svg width="215pt" height="285pt"
 viewBox="0.00 0.00 214.59 284.80" xmlns="http://www.w3.org/2000/svg" xmlns:xlink="http://www.w3.org/1999/xlink">
<g id="graph0" class="graph" transform="scale(1 1) rotate(0) translate(4 280.8)">
<title>%65</title>
<polygon fill="white" stroke="none" points="-4,4 -4,-280.8 210.594,-280.8 210.594,4 -4,4"/>
<text text-anchor="middle" x="103.297" y="-260.2" font-family="Times,serif" font-size="14.00">React LifeCycle &#45; Mount</text>
<!-- constructor() -->
<g id="node1" class="node"><title>constructor()</title>
<ellipse fill="none" stroke="black" cx="103.297" cy="-234" rx="60.812" ry="18"/>
<text text-anchor="middle" x="103.297" y="-229.8" font-family="Times,serif" font-size="14.00">constructor()</text>
</g>
<!-- componentWillMount() -->
<g id="node2" class="node"><title>componentWillMount()</title>
<ellipse fill="none" stroke="black" cx="103.297" cy="-162" rx="103.094" ry="18"/>
<text text-anchor="middle" x="103.297" y="-157.8" font-family="Times,serif" font-size="14.00">componentWillMount()</text>
</g>
<!-- constructor()&#45;&gt;componentWillMount() -->
<g id="edge1" class="edge"><title>constructor()&#45;&gt;componentWillMount()</title>
<path fill="none" stroke="black" d="M103.297,-215.697C103.297,-207.983 103.297,-198.712 103.297,-190.112"/>
<polygon fill="black" stroke="black" points="106.797,-190.104 103.297,-180.104 99.7971,-190.104 106.797,-190.104"/>
</g>
<!-- render() -->
<g id="node4" class="node"><title>render()</title>
<ellipse fill="none" stroke="black" cx="103.297" cy="-90" rx="42.2525" ry="18"/>
<text text-anchor="middle" x="103.297" y="-85.8" font-family="Times,serif" font-size="14.00">render()</text>
</g>
<!-- componentWillMount()&#45;&gt;render() -->
<g id="edge2" class="edge"><title>componentWillMount()&#45;&gt;render()</title>
<path fill="none" stroke="black" d="M103.297,-143.697C103.297,-135.983 103.297,-126.712 103.297,-118.112"/>
<polygon fill="black" stroke="black" points="106.797,-118.104 103.297,-108.104 99.7971,-118.104 106.797,-118.104"/>
</g>
<!-- componentDidMount() -->
<g id="node3" class="node"><title>componentDidMount()</title>
<ellipse fill="none" stroke="black" cx="103.297" cy="-18" rx="100.729" ry="18"/>
<text text-anchor="middle" x="103.297" y="-13.8" font-family="Times,serif" font-size="14.00">componentDidMount()</text>
</g>
<!-- render()&#45;&gt;componentDidMount() -->
<g id="edge3" class="edge"><title>render()&#45;&gt;componentDidMount()</title>
<path fill="none" stroke="black" d="M103.297,-71.6966C103.297,-63.9827 103.297,-54.7125 103.297,-46.1124"/>
<polygon fill="black" stroke="black" points="106.797,-46.1043 103.297,-36.1043 99.7971,-46.1044 106.797,-46.1043"/>
</g>
</g>
</svg>
